<svg width="24" height="24" viewBox="0 0 24 24" fill="none" xmlns="http://www.w3.org/2000/svg">
<path d="M18.05 7.16398C18.3831 5.46878 18.1968 4.18222 17.4095 3.67096C17.131 3.49825 16.8053 3.41726 16.4784 3.4394C14.5663 3.51199 11.481 6.14476 8.96024 10.0264C5.97267 14.6269 4.91097 19.2374 6.5905 20.3281C7.38775 20.8459 8.65816 20.4788 10.0934 19.4561" stroke="#F7F7F7" stroke-width="1.5" stroke-linecap="round" stroke-linejoin="round"/>
<path d="M12.1921 8.38083C17.67 8.66795 22.0222 10.5194 21.9174 12.5193C21.8721 13.384 21.0001 14.1369 19.5822 14.687" stroke="#F7F7F7" stroke-width="1.5" stroke-linecap="round" stroke-linejoin="round"/>
<path d="M10.1504 8.35217C10.3263 8.348 10.5006 8.34201 10.6796 8.34141C11.1735 8.33973 11.6785 8.35392 12.1921 8.38082" stroke="#F7F7F7" stroke-width="1.5" stroke-linecap="round" stroke-linejoin="round"/>
<path d="M6.86328 8.66443C4.05579 9.16102 2.14998 10.1921 2.08257 11.4797C2.0373 12.3427 2.82362 13.1796 4.17144 13.8741" stroke="#F7F7F7" stroke-width="1.5" stroke-linecap="round" stroke-linejoin="round"/>
<path d="M18.05 7.16398C18.3831 5.46878 18.1968 4.18222 17.4095 3.67096C17.131 3.49825 16.8053 3.41726 16.4784 3.4394C14.5663 3.51199 11.481 6.14476 8.96024 10.0264C5.97267 14.6269 4.91097 19.2374 6.5905 20.3281C7.38775 20.8459 8.65816 20.4788 10.0934 19.4561" stroke="#F7F7F7" stroke-width="1.5" stroke-linecap="round" stroke-linejoin="round"/>
<path d="M10.6452 4.1833C9.9483 3.48364 9.01955 3.06308 8.03401 3.0009C7.84528 3.01332 7.66098 3.06358 7.49208 3.1487C5.70774 4.05786 6.27776 8.75995 8.76809 13.6475C11.2584 18.535 14.7236 21.7595 16.5079 20.8503C18.2239 19.976 17.7608 15.5945 15.5078 10.9132" stroke="#F7F7F7" stroke-width="1.5" stroke-linecap="round" stroke-linejoin="round"/>
<path d="M10.6452 4.1833C9.9483 3.48364 9.01955 3.06308 8.03401 3.0009C7.84528 3.01332 7.66098 3.06358 7.49208 3.1487C5.70774 4.05786 6.27776 8.75995 8.76809 13.6475C11.2584 18.535 14.7236 21.7595 16.5079 20.8503C18.2239 19.976 17.7608 15.5945 15.5078 10.9132" stroke="#F7F7F7" stroke-width="1.5" stroke-linecap="round" stroke-linejoin="round"/>
<path d="M12.3145 12.1403C12.3143 12.2783 12.2023 12.3901 12.0643 12.3901C11.9262 12.39 11.8143 12.2781 11.8143 12.1401C11.8142 12.002 11.926 11.89 12.064 11.8898C12.1305 11.8898 12.1942 11.9161 12.2412 11.9631C12.2882 12.0101 12.3145 12.0738 12.3145 12.1403" stroke="#F7F7F7" stroke-width="1.5" stroke-linecap="round" stroke-linejoin="round"/>
</svg>
