<svg width="16" height="16" viewBox="0 0 16 16" fill="none" xmlns="http://www.w3.org/2000/svg">
<g clip-path="url(#clip0_2137_732)">
<path d="M4.07192 13.5748H1.37525V4.89074H4.07192V13.5748ZM2.72214 3.70615C1.85983 3.70615 1.1604 2.99192 1.1604 2.12961C1.1604 1.71541 1.32494 1.31818 1.61782 1.02529C1.9107 0.732411 2.30794 0.567871 2.72214 0.567871C3.13633 0.567871 3.53357 0.732411 3.82645 1.02529C4.11933 1.31818 4.28387 1.71541 4.28387 2.12961C4.28387 2.99192 3.58415 3.70615 2.72214 3.70615ZM14.1647 13.5748H11.4738V9.34745C11.4738 8.33997 11.4535 7.04796 10.0718 7.04796C8.66974 7.04796 8.45489 8.14254 8.45489 9.27486V13.5748H5.76112V4.89074H8.34746V6.07532H8.38521C8.74523 5.39302 9.62467 4.67298 10.9367 4.67298C13.6659 4.67298 14.1676 6.47018 14.1676 8.80451V13.5748H14.1647Z" fill="#0077b5"/>
</g>
<defs>
<clipPath id="clip0_2137_732">
<rect width="14.8654" height="14.8654" fill="white" transform="translate(0.231445 0.567871)"/>
</clipPath>
</defs>
</svg>
